# Blender 4.2.3 LTS
# www.blender.org
mtllib Streetlamp.mtl
o Cylinder
v -0.050395 7.106690 -0.142500
v 0.000000 0.005953 -0.150000
v -0.000000 7.005952 -0.063000
v 0.088168 0.005953 -0.121353
v 0.037030 7.005952 -0.050968
v 0.142658 0.005953 -0.046353
v 0.059917 7.005952 -0.019468
v 0.142658 0.005953 0.046353
v 0.059917 7.005952 0.019468
v 0.088168 0.005953 0.121353
v 0.037030 7.005952 0.050968
v 0.000000 0.005953 0.150000
v -0.000000 7.005952 0.063000
v -0.088168 0.005953 0.121353
v -0.037030 7.005952 0.050968
v -0.142658 0.005953 0.046353
v -0.059917 7.005952 0.019468
v -0.142658 0.005953 -0.046353
v -0.059917 7.005952 -0.019468
v -0.088168 0.005953 -0.121353
v -0.037030 7.005952 -0.050968
v -0.556134 7.106690 -0.123346
v -0.576944 7.005952 -0.129838
v -0.462125 7.005952 -0.150000
v -0.447056 7.106690 -0.142500
v 0.107342 7.106690 -0.044035
v 0.122320 7.005952 -0.046353
v 0.122320 7.005952 0.046353
v 0.107342 7.106690 0.044035
v -0.582582 7.106690 -0.044035
v -0.582582 7.106690 0.044035
v -0.556134 7.106690 0.123346
v -0.447056 7.106690 0.142500
v -0.576944 7.005952 0.129838
v -0.462125 7.005952 0.150000
v -0.604784 7.005952 0.046353
v -0.604784 7.005952 -0.046353
v -0.042550 7.005952 -0.150000
v 0.119595 7.005952 -0.082894
v 0.107342 7.106690 -0.078749
v 0.107342 7.106690 0.078749
v 0.119595 7.005952 0.082894
v -0.042550 7.005952 0.150000
v -0.219624 7.005952 -0.120000
v -0.472468 7.005952 -0.135000
v -0.219624 7.005952 0.037082
v -0.592805 7.005952 0.041717
v -0.592805 7.005952 -0.041717
v -0.219624 7.005952 -0.037082
v -0.219624 7.005952 0.120000
v -0.472468 7.005952 0.135000
v -0.560686 7.005952 0.109217
v -0.219624 7.005952 0.097082
v -0.219624 7.005952 -0.097082
v -0.560686 7.005952 -0.109217
v -0.230793 6.991281 -0.108000
v -0.461299 6.991281 -0.121500
v -0.581635 6.991281 0.037546
v -0.581635 6.991281 -0.037546
v -0.230793 6.991281 0.108000
v -0.461299 6.991281 0.121500
v -0.549516 6.991281 0.098296
v -0.549516 6.991281 -0.098296
v -0.250898 6.978579 -0.086400
v -0.441194 6.978579 -0.097200
v -0.561530 6.978579 0.030036
v -0.561530 6.978579 -0.030036
v -0.250898 6.978579 0.086400
v -0.441194 6.978579 0.097200
v -0.529411 6.978579 0.078636
v -0.529411 6.978579 -0.078636
v -0.275024 6.966993 -0.060480
v -0.417068 6.966993 -0.068040
v -0.537404 6.966993 0.021026
v -0.537404 6.966993 -0.021026
v -0.275024 6.966993 0.060480
v -0.417068 6.966993 0.068040
v -0.505285 6.966993 0.055046
v -0.505285 6.966993 -0.055046
v -0.297542 6.956461 -0.042336
v -0.394550 6.956461 -0.047628
v -0.297542 6.956461 0.013083
v -0.514886 6.956461 0.014718
v -0.514886 6.956461 -0.014718
v -0.297542 6.956461 -0.013083
v -0.297542 6.956461 0.042336
v -0.394550 6.956461 0.047628
v -0.482768 6.956461 0.038532
v -0.297542 6.956461 0.034251
v -0.297542 6.956461 -0.034251
v -0.482768 6.956461 -0.038532
v -0.050395 7.106690 0.142500
vn -0.0000 0.0742 0.9972
vn 0.3090 0.0118 -0.9510
vn -0.0000 -1.0000 -0.0000
vn 0.8090 0.0118 -0.5877
vn -0.0000 0.0742 -0.9972
vn 0.9999 0.0118 -0.0000
vn 0.8090 0.0118 0.5877
vn 0.3090 0.0118 0.9510
vn -0.9272 0.2115 -0.3092
vn -0.3090 0.0118 0.9510
vn -0.9272 0.2115 0.3092
vn -0.8090 0.0118 0.5877
vn 0.9891 0.1471 -0.0000
vn -0.9999 0.0118 -0.0000
vn -0.8090 0.0118 -0.5877
vn -0.3090 0.0118 -0.9510
vn 0.9901 0.1350 -0.0379
vn 0.9901 0.1350 0.0379
vn -0.1721 0.0987 -0.9801
vn -0.1721 0.0987 0.9801
vn -0.9766 0.2152 -0.0000
vn 0.3771 0.0909 0.9217
vn 0.3771 0.0909 -0.9217
vn -0.6609 -0.6735 0.3311
vn -0.1886 -0.7091 0.6794
vn 0.0280 -0.8746 -0.4841
vn 0.0280 -0.8746 0.4841
vn -0.1011 -0.8986 0.4269
vn -0.1886 -0.7091 -0.6794
vn 0.0445 -0.6553 0.7541
vn -0.7957 -0.6058 -0.0000
vn 0.0445 -0.6553 -0.7541
vn -0.6609 -0.6735 -0.3311
vn 0.0214 -0.9215 -0.3877
vn 0.0214 -0.9215 0.3877
vn -0.0630 -0.9337 0.3525
vn -0.4005 -0.8856 0.2353
vn -0.1011 -0.8986 -0.4269
vn -0.5341 -0.8454 -0.0000
vn -0.4005 -0.8856 -0.2353
vn 0.0258 -0.8773 0.4793
vn -0.0554 -0.8949 0.4428
vn -0.2732 -0.9129 -0.3034
vn -0.2924 -0.9289 0.2274
vn -0.0630 -0.9337 -0.3525
vn -0.4329 -0.9014 -0.0000
vn -0.2924 -0.9289 -0.2274
vn 0.0258 -0.8773 -0.4793
vn -0.2732 -0.9129 0.3034
vn -0.0554 -0.8949 -0.4428
vn -0.4236 -0.9058 -0.0000
vn 0.4237 -0.9058 -0.0000
vn 0.4329 -0.9014 -0.0000
vn 0.5341 -0.8454 -0.0000
vn 0.7957 -0.6057 -0.0000
vn -0.0000 1.0000 -0.0000
vt 0.250000 0.010000
vt 0.500000 1.000000
vt 1.000000 0.500000
vt 1.000000 1.000000
vt 0.900000 1.000000
vt 0.900000 0.500000
vt 0.200000 1.000000
vt 0.300000 1.000000
vt 0.800000 1.000000
vt 0.800000 0.500000
vt -0.000000 1.000000
vt 0.250000 0.490000
vt 0.700000 1.000000
vt 0.700000 0.500000
vt 0.600000 1.000000
vt 0.600000 0.500000
vt 0.500000 0.500000
vt 0.100000 1.000000
vt 0.400000 1.000000
vt 0.400000 0.500000
vt 0.300000 0.500000
vt 0.200000 0.500000
vt 0.100000 0.500000
vt -0.000000 0.500000
vt 0.750000 0.490000
vt 0.891068 0.444164
vt 0.978254 0.324164
vt 0.978254 0.175836
vt 0.891068 0.055836
vt 0.750000 0.010000
vt 0.608932 0.055836
vt 0.521746 0.175836
vt 0.521746 0.324164
vt 0.608932 0.444164
vt 0.500000 1.000000
vt 0.100000 1.000000
vt 0.942572 1.000000
vt 0.108932 0.444164
vt 0.021746 0.324164
vt 0.021746 0.175836
vt 0.108932 0.055836
vt 0.402566 0.071661
vt 0.391068 0.055836
vt 0.478254 0.175836
vt 0.478254 0.324164
vt 0.391068 0.444164
vt 0.000000 0.000000
s 0
usemtl Material.glass
f 52/19/24 47/8/24 58/8/24 62/19/24
f 51/35/25 52/19/25 62/19/25 61/35/25
f 57/11/26 56/11/26 64/11/26 65/11/26
f 60/35/27 61/35/27 69/35/27 68/35/27
f 61/35/28 62/19/28 70/19/28 69/35/28
f 55/36/29 45/11/29 57/11/29 63/36/29
f 50/35/30 51/35/30 61/35/30 60/35/30
f 47/8/31 48/7/31 59/7/31 58/8/31
f 45/11/32 44/11/32 56/11/32 57/11/32
f 48/7/33 55/36/33 63/36/33 59/7/33
f 65/11/34 64/11/34 72/11/34 73/11/34
f 68/35/35 69/35/35 77/35/35 76/35/35
f 69/35/36 70/19/36 78/19/36 77/35/36
f 62/19/37 58/8/37 66/8/37 70/19/37
f 63/36/38 57/11/38 65/11/38 71/36/38
f 58/8/39 59/7/39 67/7/39 66/8/39
f 59/7/40 63/36/40 71/36/40 67/7/40
f 76/35/41 77/35/41 87/35/41 86/35/41
f 77/35/42 78/19/42 88/19/42 87/35/42
f 75/7/43 79/36/43 91/36/43 84/7/43
f 70/19/44 66/8/44 74/8/44 78/19/44
f 71/36/45 65/11/45 73/11/45 79/36/45
f 66/8/46 67/7/46 75/7/46 74/8/46
f 67/7/47 71/36/47 79/36/47 75/7/47
f 82/8/3 89/19/3 88/19/3 83/8/3
f 90/36/3 85/7/3 84/7/3 91/36/3
f 80/11/3 90/36/3 91/36/3 81/11/3
f 89/19/3 86/35/3 87/35/3 88/19/3
f 85/7/3 82/8/3 83/8/3 84/7/3
f 73/11/48 72/11/48 80/11/48 81/11/48
f 78/19/49 74/8/49 83/8/49 88/19/49
f 79/36/50 73/11/50 81/11/50 91/36/50
f 74/8/51 75/7/51 84/7/51 83/8/51
f 76/35/52 86/35/52 89/19/52 82/8/52 85/7/52 90/36/52 80/11/52 72/11/52
f 68/35/53 76/35/53 72/11/53 64/11/53
f 60/35/54 68/35/54 64/11/54 56/11/54
usemtl Material.steel
f 92/1/1 33/2/1 35/2/1 43/2/1
f 2/3/2 3/4/2 5/5/2 4/6/2
f 48/7/3 47/8/3 36/8/3 37/7/3
f 4/6/4 5/5/4 7/9/4 6/10/4
f 38/4/5 24/11/5 25/12/5 1/4/5
f 6/10/6 7/9/6 9/13/6 8/14/6
f 8/14/7 9/13/7 11/15/7 10/16/7
f 10/16/8 11/15/8 13/2/8 12/17/8
f 23/18/9 37/7/9 30/7/9 22/18/9
f 7/9/3 5/5/3 39/5/3 27/9/3
f 12/17/10 13/2/10 15/19/10 14/20/10
f 36/8/11 34/19/11 32/19/11 31/8/11
f 14/20/12 15/19/12 17/8/12 16/21/12
f 28/13/13 27/9/13 26/9/13 29/13/13
f 16/21/14 17/8/14 19/7/14 18/22/14
f 18/22/15 19/7/15 21/18/15 20/23/15
f 9/13/3 7/9/3 27/9/3 28/13/3
f 20/23/16 21/18/16 3/11/16 2/24/16
f 2/25/3 4/26/3 6/27/3 8/28/3 10/29/3 12/30/3 14/31/3 16/32/3 18/33/3 20/34/3
f 27/9/17 39/5/17 40/5/17 26/9/17
f 42/15/18 28/13/18 29/13/18 41/15/18
f 11/15/3 9/13/3 28/13/3 42/15/3
f 24/11/19 23/18/19 22/18/19 25/11/19
f 34/19/20 35/2/20 33/2/20 32/19/20
f 37/7/21 36/8/21 31/8/21 30/7/21
f 52/19/3 51/35/3 35/2/3 34/19/3
f 45/11/3 55/36/3 23/18/3 24/11/3
f 55/36/3 48/7/3 37/7/3 23/18/3
f 47/8/3 52/19/3 34/19/3 36/8/3
f 24/11/3 38/4/3 3/11/3 44/11/3 45/11/3
f 43/2/22 42/15/22 41/15/22 92/2/22
f 39/5/23 38/4/23 1/37/23 40/5/23
f 35/2/3 51/35/3 50/35/3 13/2/3 43/2/3
f 5/5/3 3/4/3 38/4/3 39/5/3
f 13/2/3 11/15/3 42/15/3 43/2/3
f 17/8/3 15/19/3 53/19/3 46/8/3
f 21/18/3 19/7/3 49/7/3 54/36/3
f 3/11/3 21/18/3 54/36/3 44/11/3
f 15/19/3 13/2/3 50/35/3 53/19/3
f 19/7/3 17/8/3 46/8/3 49/7/3
f 46/8/55 53/19/55 50/35/55 60/35/55 56/11/55 44/11/55 54/36/55 49/7/55
f 1/12/56 25/12/56 22/38/56 30/39/56 31/40/56 32/41/56 33/1/56 92/42/56 41/43/56 29/44/56 26/45/56 40/46/56
f 54/47/56 44/47/56 45/47/56 55/47/56 48/47/56 47/47/56 52/47/56 51/47/56 50/47/56 53/47/56 46/47/56 49/47/56
