# Blender 4.2.3 LTS
# www.blender.org
mtllib Rail.mtl
o Plane
v 1.143657 0.087140 -2.668609
v -1.526603 0.087140 -2.668609
v 1.143657 0.204505 -2.668609
v -1.526603 0.204505 -2.668609
v -0.046383 0.276636 -2.668609
v -0.336563 0.276636 -2.668609
v -0.046383 0.087140 -2.668609
v -0.336563 0.087140 -2.668609
v -0.046383 2.770741 -2.668609
v -0.336563 2.770741 -2.668609
v -0.046383 2.299452 -2.668610
v 0.198474 2.770741 -2.668610
v 0.276492 2.580239 -2.668611
v 0.428927 2.893169 -2.668610
v 0.506945 2.702667 -2.668611
v 0.613590 3.109220 -2.668610
v 0.730197 2.918718 -2.668610
v 0.867029 3.526916 -2.668610
v 0.814933 3.166236 -2.668610
v -0.071094 3.496708 -2.668610
v -0.336563 3.526916 -2.668609
v -0.046383 2.893169 -2.668610
v 0.329325 2.803013 -2.668610
v 0.060421 2.803014 -2.668610
v 0.701300 3.526916 -2.668610
v 0.691211 3.293949 -2.668610
v -0.111883 3.526916 -2.668609
v -0.046383 3.446402 -2.668610
v 0.093911 2.498131 -2.668610
v 0.176157 2.562299 -2.668611
v -0.001359 2.421905 -2.668610
v -0.336563 2.951059 -2.668609
v -0.794328 3.171706 -2.668609
v -0.794328 3.487638 -2.668609
v -0.846423 3.218387 -2.668924
v -0.846423 3.440957 -2.668924
v 1.140975 0.087144 2.671793
v -1.529285 0.087144 2.671793
v 1.140975 0.204509 2.671793
v -1.529285 0.204509 2.671793
v -0.049065 0.276640 2.671793
v -0.339245 0.276640 2.671793
v -0.049065 0.087144 2.671793
v -0.339245 0.087144 2.671793
v -0.049065 2.770745 2.671794
v -0.339245 2.770745 2.671794
v -0.049065 2.299456 2.671793
v 0.195792 2.770745 2.671793
v 0.273810 2.580243 2.671792
v 0.426246 2.893173 2.671793
v 0.504264 2.702671 2.671792
v 0.610908 3.109223 2.671793
v 0.727515 2.918722 2.671793
v 0.864347 3.526920 2.671793
v 0.812252 3.166240 2.671793
v -0.073775 3.496712 2.671793
v -0.339245 3.526920 2.671793
v -0.049065 2.893173 2.671793
v 0.326643 2.803018 2.671793
v 0.057739 2.803018 2.671793
v 0.698619 3.526920 2.671793
v 0.688529 3.293954 2.671793
v -0.114565 3.526920 2.671793
v -0.049065 3.446406 2.671793
v 0.091229 2.498135 2.671793
v 0.173475 2.562303 2.671793
v -0.004041 2.421909 2.671793
v -0.339245 2.951063 2.671793
v -0.797009 3.171711 2.671793
v -0.797009 3.487642 2.671793
v -0.849105 3.218391 2.671479
v -0.849105 3.440962 2.671479
vn -0.0000 -0.0000 -1.0000
vn 0.0060 -0.0000 -1.0000
vn -0.0000 -0.0000 1.0000
vn -0.0060 -0.0000 1.0000
vn -0.4342 -0.9008 -0.0002
vn -1.0000 -0.0000 -0.0005
vn 0.1760 -0.9844 0.0001
vn -0.0855 0.9963 -0.0000
vn -0.0605 0.9982 -0.0000
vn -0.0000 -1.0000 -0.0000
vn 0.6450 0.7642 0.0003
vn -0.6673 -0.7448 -0.0003
vn 0.0605 0.9982 -0.0000
vn -0.6711 0.7414 -0.0003
vn 0.4692 -0.8831 0.0002
vn -0.6673 0.7448 -0.0003
vn 0.2276 0.9737 0.0001
vn -0.2395 0.9709 -0.0001
vn -0.0000 1.0000 -0.0000
vn -0.9991 0.0433 -0.0005
vn 0.6954 -0.7186 0.0003
vn 0.8976 0.4409 0.0005
vn -0.7602 0.6497 -0.0004
vn 1.0000 -0.0000 0.0005
vn 0.9897 -0.1430 0.0005
vn 0.5951 0.8036 0.0003
vn 0.9461 -0.3239 0.0005
vn 0.6151 -0.7884 0.0003
vn -0.9219 0.3874 -0.0005
vn 0.9386 -0.3451 0.0005
vn 0.6247 -0.7808 0.0003
vt 0.000000 0.000000
s 0
f 6/1/1 8/1/1 2/1/1 4/1/1
f 3/1/1 1/1/1 7/1/1 5/1/1
f 5/1/1 7/1/1 8/1/1 6/1/1
f 6/1/1 10/1/1 9/1/1 11/1/1 5/1/1
f 9/1/1 12/1/1 13/1/1 30/1/1 29/1/1 31/1/1 11/1/1
f 12/1/1 23/1/1 14/1/1 15/1/1 13/1/1
f 14/1/1 16/1/1 17/1/1 15/1/1
f 16/1/1 26/1/1 25/1/1 18/1/1 19/1/1 17/1/1
f 9/1/1 22/1/1 24/1/1 12/1/1
f 10/1/1 32/1/1 21/1/1 27/1/1 20/1/1 28/1/1 22/1/1 9/1/1
f 34/1/1 21/1/1 32/1/1 33/1/1
f 34/1/2 33/1/2 35/1/2 36/1/2
f 42/1/3 40/1/3 38/1/3 44/1/3
f 39/1/3 41/1/3 43/1/3 37/1/3
f 41/1/3 42/1/3 44/1/3 43/1/3
f 42/1/3 41/1/3 47/1/3 45/1/3 46/1/3
f 45/1/3 47/1/3 67/1/3 65/1/3 66/1/3 49/1/3 48/1/3
f 48/1/3 49/1/3 51/1/3 50/1/3 59/1/3
f 50/1/3 51/1/3 53/1/3 52/1/3
f 52/1/3 53/1/3 55/1/3 54/1/3 61/1/3 62/1/3
f 45/1/3 48/1/3 60/1/3 58/1/3
f 46/1/3 45/1/3 58/1/3 64/1/3 56/1/3 63/1/3 57/1/3 68/1/3
f 70/1/3 69/1/3 68/1/3 57/1/3
f 70/1/4 72/1/4 71/1/4 69/1/4
f 33/1/5 32/1/5 68/1/5 69/1/5
f 4/1/6 2/1/6 38/1/6 40/1/6
f 32/1/6 10/1/6 46/1/6 68/1/6
f 30/1/7 13/1/7 49/1/7 66/1/7
f 21/1/8 34/1/8 70/1/8 57/1/8
f 6/1/9 4/1/9 40/1/9 42/1/9
f 2/1/10 8/1/10 44/1/10 38/1/10
f 24/1/11 22/1/11 58/1/11 60/1/11
f 35/1/12 33/1/12 69/1/12 71/1/12
f 3/1/13 5/1/13 41/1/13 39/1/13
f 14/1/14 23/1/14 59/1/14 50/1/14
f 13/1/15 15/1/15 51/1/15 49/1/15
f 34/1/16 36/1/16 72/1/16 70/1/16
f 12/1/17 24/1/17 60/1/17 48/1/17
f 23/1/18 12/1/18 48/1/18 59/1/18
f 36/1/6 35/1/6 71/1/6 72/1/6
f 7/1/10 1/1/10 37/1/10 43/1/10
f 18/1/19 25/1/19 61/1/19 54/1/19
f 8/1/10 7/1/10 43/1/10 44/1/10
f 25/1/20 26/1/20 62/1/20 61/1/20
f 15/1/21 17/1/21 53/1/21 51/1/21
f 28/1/22 20/1/22 56/1/22 64/1/22
f 16/1/23 14/1/23 50/1/23 52/1/23
f 22/1/24 28/1/24 64/1/24 58/1/24
f 19/1/25 18/1/25 54/1/25 55/1/25
f 20/1/26 27/1/26 63/1/26 56/1/26
f 17/1/27 19/1/27 55/1/27 53/1/27
f 10/1/6 6/1/6 42/1/6 46/1/6
f 29/1/28 30/1/28 66/1/28 65/1/28
f 26/1/29 16/1/29 52/1/29 62/1/29
f 11/1/30 31/1/30 67/1/30 47/1/30
f 27/1/19 21/1/19 57/1/19 63/1/19
f 5/1/24 11/1/24 47/1/24 41/1/24
f 1/1/24 3/1/24 39/1/24 37/1/24
f 31/1/31 29/1/31 65/1/31 67/1/31
