# Blender 4.2.3 LTS
# www.blender.org
mtllib Stop.mtl
o Cube
v 0.256747 0.139929 0.035952
v 0.256747 0.000158 0.035952
v 0.256747 0.139929 -0.030394
v 0.256747 0.000158 -0.030394
v -0.256747 0.139929 0.035952
v -0.256747 0.000158 0.035952
v -0.256747 0.139929 -0.030394
v -0.256747 0.000158 -0.030394
v 0.230685 0.139929 -0.030394
v -0.230685 0.139929 -0.030394
v -0.230685 0.139929 0.035952
v -0.216467 0.139929 0.035952
v -0.230685 0.726520 -0.030394
v -0.256747 0.726520 -0.030394
v 0.256747 0.726520 0.035952
v 0.256747 0.726520 -0.030394
v -0.256747 0.726520 0.035952
v 0.230685 0.726520 0.035952
v 0.230685 0.726520 -0.030394
v -0.230685 0.726520 0.035952
v -0.230685 2.862198 -0.030394
v -0.256747 2.862198 -0.030394
v 0.256747 2.862198 0.035952
v 0.256747 2.862198 -0.030394
v -0.256747 2.862198 0.035952
v 0.230685 2.862198 0.035952
v 0.230685 2.862198 -0.030394
v -0.230685 2.862198 0.035952
v 0.230685 0.574836 0.104614
v -0.256747 3.374736 -0.030394
v 0.256747 3.374736 0.035952
v 0.256747 3.374736 -0.030394
v -0.256747 3.374736 0.035952
v -0.230685 0.574836 0.104614
v -0.230685 0.574836 -0.099056
v 0.230685 0.574836 -0.099056
v 0.230685 0.139929 -0.042507
v -0.230685 0.139929 -0.042507
v 0.230685 0.574836 0.121530
v -0.230685 0.574836 0.121530
v -0.230685 0.574836 -0.115972
v 0.230685 0.574836 -0.115972
v -0.230685 0.574836 0.035952
v -0.230685 0.574836 -0.030394
v 0.230685 0.574836 -0.030394
v 0.230685 0.574836 0.035952
v 0.230685 0.139929 0.035952
v -0.216467 0.139929 -0.030394
v -0.216467 0.574836 0.035952
v -0.216467 0.574836 -0.030394
v 0.216467 0.139929 0.035952
v 0.216467 0.574836 0.104614
v -0.216467 0.574836 0.104614
v -0.216467 0.574836 -0.099056
v 0.216467 0.139929 -0.030394
v 0.216467 0.574836 -0.099056
v 0.216467 0.574836 -0.030394
v 0.216467 0.574836 0.035952
v -0.200003 2.898249 0.075576
v -0.222598 2.898249 0.075576
v 0.200003 2.898249 -0.070018
v 0.222598 2.898249 -0.070018
v 0.222598 2.898249 0.075576
v 0.200003 2.898249 0.075576
v -0.222598 2.898249 -0.070018
v -0.200003 2.898249 -0.070018
v 0.222598 3.342616 0.075576
v -0.222598 3.342616 0.075576
v 0.222598 3.342616 -0.070018
v -0.222598 3.342616 -0.070018
v 0.230685 0.896882 -0.030394
v -0.230685 0.896882 -0.030394
v 0.230685 0.896882 0.035952
v -0.230685 0.896882 0.035952
v 0.256747 0.953165 0.035952
v -0.256747 0.953165 0.035952
v 0.230685 0.953165 0.035952
v -0.230685 0.953165 0.035952
v 0.256747 1.602967 0.035952
v 0.230685 1.602967 0.035952
v -0.256747 1.602967 0.035952
v -0.230685 1.602967 0.035952
v 0.256747 1.602967 0.057862
v 0.256747 0.953165 0.057862
v -0.256747 1.602967 0.057862
v -0.256747 0.953165 0.057862
v -0.230685 1.602967 0.057862
v -0.230685 0.953165 0.057862
v 0.230685 0.953165 0.057862
v 0.230685 1.602967 0.057862
v -0.230685 2.258646 0.035952
v 0.230685 2.258646 0.035952
v 0.256747 1.637116 0.035952
v 0.256747 1.612400 0.035952
v -0.256747 1.637116 0.035952
v -0.256747 1.612400 0.035952
v -0.230685 1.637116 0.035952
v -0.230685 1.612400 0.035952
v -0.256747 2.258646 0.035952
v 0.256747 2.258646 0.035952
v 0.256747 1.637116 0.081193
v 0.256747 1.612400 0.081193
v -0.256747 1.637116 0.081193
v -0.256747 1.612400 0.081193
v -0.230685 1.637116 0.081193
v -0.230685 1.612400 0.081193
v 0.230685 1.637117 0.035952
v 0.230685 1.612400 0.035952
v 0.230685 1.637117 0.081193
v 0.230685 1.612400 0.081193
v 0.256747 2.837153 0.035952
v 0.230685 2.837153 0.035952
v -0.256747 2.837153 0.035952
v -0.230685 2.837153 0.035952
v 0.256747 2.837153 0.057862
v 0.256747 2.258646 0.057862
v -0.256747 2.837153 0.057862
v -0.256747 2.258646 0.057862
v -0.230685 2.837153 0.057862
v -0.230685 2.258646 0.057862
v 0.230685 2.258646 0.057862
v 0.230685 2.837153 0.057862
v -0.230685 1.661650 0.035952
v 0.230685 1.661650 0.035952
v -0.256747 1.661650 0.035952
v 0.256747 1.661650 0.035952
v 0.256747 2.060413 0.035952
v 0.230685 2.060413 0.035952
v -0.256747 2.060413 0.035952
v -0.230685 2.060413 0.035952
v 0.256747 2.060413 0.057862
v 0.256747 1.661650 0.057862
v -0.256747 2.060413 0.057862
v -0.256747 1.661650 0.057862
v -0.230685 2.060413 0.057862
v -0.230685 1.661650 0.057862
v 0.230685 1.661650 0.057862
v 0.230685 2.060413 0.057862
v 0.256747 0.953165 -0.051756
v -0.256747 0.953165 -0.051756
v 0.230685 0.953165 -0.051756
v -0.230685 0.953165 -0.051756
v 0.256747 1.602967 -0.051756
v 0.230685 1.602967 -0.051756
v -0.256747 1.602967 -0.051756
v -0.230685 1.602967 -0.051756
v 0.256747 1.602967 -0.029846
v 0.256747 0.953165 -0.029846
v -0.256747 1.602967 -0.029846
v -0.256747 0.953165 -0.029846
v -0.230685 1.602967 -0.029846
v -0.230685 0.953165 -0.029846
v 0.230685 0.953165 -0.029846
v 0.230685 1.602967 -0.029846
vn -1.0000 -0.0000 -0.0000
vn -0.0000 -0.0000 1.0000
vn 1.0000 -0.0000 -0.0000
vn -0.0000 1.0000 -0.0000
vn -0.0000 -0.0000 -1.0000
vn -0.0000 -1.0000 -0.0000
vn 0.0079 -0.0024 1.0000
vn -0.0079 -0.0024 1.0000
vn -0.0000 -0.7397 -0.6730
vn -0.0000 0.7397 -0.6730
vn -0.0000 0.1666 0.9860
vn -0.7575 -0.0000 -0.6528
vn -0.0000 0.1559 0.9878
vn -0.0000 0.1559 -0.9878
vn -0.0000 -0.7768 -0.6297
vn -0.0000 -0.1559 0.9878
vn -0.0000 -0.1559 -0.9878
vn -0.0000 0.7768 -0.6297
vn 0.7575 -0.0000 -0.6528
vn -0.0000 0.0004 1.0000
vn -0.0000 0.1931 -0.9812
vt 0.957947 0.070193
vt 0.942265 0.070193
vt 0.942265 0.208848
vt 0.957947 0.208848
vt 0.385306 0.027977
vt 0.385306 0.061390
vt 0.391536 0.061390
vt 0.394935 0.061390
vt 0.498431 0.061390
vt 0.501830 0.061390
vt 0.508060 0.061390
vt 0.508060 0.027977
vt 0.621627 0.016225
vt 0.621627 0.049638
vt 0.637488 0.049638
vt 0.637488 0.016225
vt 0.942265 0.037155
vt 0.957947 0.037155
vt 0.730271 0.030876
vt 0.730271 0.064252
vt 0.736494 0.064252
vt 0.739889 0.064252
vt 0.843269 0.064252
vt 0.846665 0.064252
vt 0.852888 0.064252
vt 0.852888 0.030876
vt 0.621627 0.189867
vt 0.637488 0.189867
vt 0.508060 0.201619
vt 0.501830 0.201619
vt 0.501830 0.242345
vt 0.501830 0.255800
vt 0.508060 0.255800
vt 0.621758 0.244048
vt 0.621758 0.399388
vt 0.621627 0.661804
vt 0.637488 0.661804
vt 0.637488 0.655817
vt 0.637488 0.517521
vt 0.637488 0.508744
vt 0.637488 0.413417
vt 0.637488 0.407552
vt 0.637488 0.401643
vt 0.637488 0.399388
vt 0.637488 0.244048
vt 0.942265 0.172994
vt 0.957947 0.172994
vt 0.730271 0.204324
vt 0.736494 0.204324
vt 0.736494 0.168103
vt 0.385306 0.201619
vt 0.391536 0.201619
vt 0.391536 0.165358
vt 0.846665 0.168103
vt 0.846665 0.204324
vt 0.852888 0.204324
vt 0.501830 0.165358
vt 0.385306 0.255800
vt 0.391536 0.255800
vt 0.391536 0.242345
vt 0.621627 0.784330
vt 0.637488 0.784330
vt 0.391536 0.673556
vt 0.501830 0.673556
vt 0.494495 0.682174
vt 0.398871 0.682174
vt 0.736494 0.675733
vt 0.730271 0.675733
vt 0.738425 0.684342
vt 0.743821 0.684342
vt 0.736494 0.421765
vt 0.730271 0.421765
vt 0.730271 0.427623
vt 0.736494 0.427623
vt 0.852888 0.421765
vt 0.846665 0.421765
vt 0.846665 0.427623
vt 0.852888 0.427623
vt 0.942265 0.262422
vt 0.942265 0.416018
vt 0.942265 0.418248
vt 0.942265 0.424091
vt 0.942265 0.429890
vt 0.942265 0.524147
vt 0.942265 0.532826
vt 0.942265 0.669570
vt 0.942265 0.675490
vt 0.957947 0.675490
vt 0.957818 0.416018
vt 0.957818 0.262422
vt 0.605213 0.153606
vt 0.618732 0.049638
vt 0.601169 0.153606
vt 0.957947 0.796641
vt 0.942265 0.796641
vt 0.974177 0.172994
vt 0.978176 0.172994
vt 0.926035 0.172994
vt 0.922036 0.172994
vt 0.960811 0.070193
vt 0.653902 0.153606
vt 0.657946 0.153606
vt 0.508060 0.673556
vt 0.508060 0.796082
vt 0.499896 0.788403
vt 0.499896 0.682174
vt 0.852888 0.798122
vt 0.852888 0.675733
vt 0.844733 0.684342
vt 0.844733 0.790452
vt 0.637488 0.153606
vt 0.621627 0.153606
vt 0.846665 0.675733
vt 0.839338 0.684342
vt 0.730271 0.798122
vt 0.738425 0.790452
vt 0.074788 0.011555
vt 0.025546 0.011555
vt 0.025546 0.979912
vt 0.995713 0.979912
vt 0.995713 0.011555
vt 0.946471 0.011555
vt 0.071663 0.008028
vt 0.946371 0.008028
vt 0.995781 0.008028
vt 0.995781 0.979743
vt 0.022253 0.979743
vt 0.022253 0.008028
vt 0.385306 0.796082
vt 0.393469 0.788403
vt 0.385306 0.673556
vt 0.393469 0.682174
vt 0.846665 0.245005
vt 0.736494 0.245005
vt 0.942265 0.424091
vt 0.942265 0.418248
vt 0.942265 0.249118
vt 0.957947 0.249118
vt 0.846665 0.258444
vt 0.852888 0.258444
vt 0.730271 0.258444
vt 0.736494 0.258444
vt 0.642726 0.399388
vt 0.642726 0.244048
vt 0.937086 0.416018
vt 0.846665 0.413610
vt 0.852888 0.413610
vt 0.730271 0.413610
vt 0.736494 0.413610
vt 0.937086 0.262422
vt 0.846665 0.415863
vt 0.852888 0.415863
vt 0.931571 0.424091
vt 0.931571 0.424091
vt 0.730271 0.415863
vt 0.736494 0.415863
vt 0.648303 0.407552
vt 0.648303 0.401643
vt 0.931571 0.418248
vt 0.937086 0.669570
vt 0.931571 0.418248
vt 0.642726 0.655817
vt 0.642726 0.517521
vt 0.501830 0.419303
vt 0.501830 0.413395
vt 0.391536 0.413395
vt 0.391536 0.419304
vt 0.852888 0.531611
vt 0.846665 0.531611
vt 0.846665 0.669752
vt 0.852888 0.669752
vt 0.736494 0.531611
vt 0.730271 0.531611
vt 0.730271 0.669752
vt 0.736494 0.669752
vt 0.937086 0.532826
vt 0.501830 0.667569
vt 0.391536 0.667569
vt 0.391536 0.529272
vt 0.501830 0.529272
vt 0.937086 0.524147
vt 0.642726 0.508744
vt 0.642726 0.413417
vt 0.846665 0.522844
vt 0.852888 0.522844
vt 0.730271 0.522844
vt 0.736494 0.522844
vt 0.937086 0.429890
vt 0.501830 0.520496
vt 0.391536 0.520496
vt 0.391536 0.425168
vt 0.501830 0.425168
vt 0.616521 0.244048
vt 0.616521 0.399388
vt 0.962997 0.416018
vt 0.391536 0.411140
vt 0.385306 0.411140
vt 0.508060 0.411140
vt 0.501830 0.411140
vt 0.962997 0.262422
s 0
usemtl Material.poleMain
f 3/1/1 1/2/1 15/3/1 16/4/1
f 4/5/2 3/6/2 9/7/2 55/8/2 48/9/2 10/10/2 7/11/2 8/12/2
f 8/13/3 7/14/3 5/15/3 6/16/3
f 6/17/4 2/17/4 4/18/4 8/18/4
f 2/17/1 1/2/1 3/1/1 4/18/1
f 6/19/5 5/20/5 11/21/5 12/22/5 51/23/5 47/24/5 1/25/5 2/26/5
f 5/15/3 7/14/3 14/27/3 17/28/3
f 14/29/7 13/30/7 72/31/7 152/32/7 150/33/7
f 17/28/3 14/27/3 150/34/3 149/35/3 22/36/3 25/37/3 113/38/3 99/39/3 129/40/3 125/41/3 95/42/3 96/43/3 81/44/3 76/45/3
f 46/46/3 45/47/3 19/4/3 18/3/3
f 11/21/5 5/20/5 17/48/5 20/49/5 43/50/5
f 9/7/2 3/6/2 16/51/2 19/52/2 45/53/2
f 1/25/5 47/24/5 46/54/5 18/55/5 15/56/5
f 44/47/1 43/46/1 20/3/1 13/4/1
f 7/11/2 10/10/2 44/57/2 13/30/2 14/29/2
f 19/52/8 16/51/8 148/58/8 153/59/8 71/60/8
f 25/37/3 22/36/3 30/61/3 33/62/3
f 27/63/9 21/64/9 66/65/9 61/66/9
f 28/67/10 25/68/10 60/69/10 59/70/10
f 97/71/5 95/72/5 125/73/5 123/74/5
f 93/75/5 107/76/5 124/77/5 126/78/5
f 16/4/1 15/3/1 75/79/1 79/80/1 94/81/1 93/82/1 126/83/1 127/84/1 100/85/1 111/86/1 23/87/1 24/88/1 147/89/1 148/90/1
f 19/4/4 13/4/4 20/3/4 18/3/4
f 32/94/4 30/94/4 33/95/4 31/95/4
f 24/88/1 23/87/1 31/95/1 32/94/1
f 22/103/12 30/104/12 70/105/12 65/106/12
f 31/107/12 23/108/12 63/109/12 67/110/12
f 47/2/4 9/1/4 55/1/4 51/2/4
f 10/1/4 11/2/4 12/2/4 48/1/4
f 23/108/10 26/113/10 64/114/10 63/109/10
f 33/115/15 31/107/15 67/110/15 68/116/15
f 30/104/18 32/129/18 69/130/18 70/105/18
f 21/64/9 22/103/9 65/106/9 66/65/9
f 25/68/19 33/115/19 68/116/19 60/69/19
f 24/131/9 27/63/9 61/66/9 62/132/9
f 32/129/19 24/131/19 62/132/19 69/130/19
f 26/113/10 28/67/10 59/70/10 64/114/10
f 19/52/5 13/30/5 72/31/5 71/60/5
f 20/49/2 18/55/2 73/133/2 74/134/2
f 26/87/3 112/86/3 92/85/3 128/84/3 124/83/3 107/135/3 108/136/3 80/80/3 77/79/3 73/137/3 71/138/3 153/90/3 154/89/3 27/88/3
f 72/138/4 74/137/4 73/137/4 71/138/4
f 72/138/1 74/137/1 78/79/1 82/80/1 98/81/1 97/82/1 123/83/1 130/84/1 91/85/1 114/86/1 28/87/1 21/88/1 151/89/1 152/90/1
f 28/87/4 26/87/4 27/88/4 21/88/4
f 15/56/5 18/55/5 73/133/5 77/139/5 75/140/5
f 20/49/5 17/48/5 76/141/5 78/142/5 74/134/5
f 76/45/3 81/44/3 85/143/3 86/144/3
f 81/80/6 82/80/6 87/145/6 85/145/6
f 84/140/5 89/139/5 90/146/5 83/147/5
f 88/142/5 86/141/5 85/148/5 87/149/5
f 77/79/3 80/80/3 90/145/3 89/150/3
f 78/79/4 76/79/4 86/150/4 88/150/4
f 82/80/1 78/79/1 88/150/1 87/145/1
f 80/80/6 79/80/6 83/145/6 90/145/6
f 79/80/1 75/79/1 84/150/1 83/145/1
f 75/79/4 77/79/4 89/150/4 84/150/4
f 87/149/2 88/142/2 89/139/2 90/146/2
f 80/80/4 82/80/4 87/145/4 90/145/4
f 89/150/6 88/150/6 78/79/6 77/79/6
f 82/80/5 80/80/5 77/79/5 78/79/5
f 79/147/5 80/146/5 108/151/5 94/152/5
f 107/135/6 93/82/6 101/153/6 109/154/6
f 82/149/5 81/148/5 96/155/5 98/156/5
f 95/82/6 97/82/6 105/153/6 103/153/6
f 102/152/5 110/151/5 109/76/5 101/75/5
f 106/156/5 104/155/5 103/72/5 105/71/5
f 106/156/5 105/71/5 109/76/5 110/151/5
f 96/43/3 95/42/3 103/157/3 104/158/3
f 93/82/1 94/81/1 102/159/1 101/153/1
f 113/86/6 114/86/6 119/160/6 117/160/6
f 98/81/4 96/81/4 104/159/4 106/159/4
f 94/81/4 108/136/4 110/161/4 102/159/4
f 99/39/3 113/38/3 117/162/3 118/163/3
f 98/81/4 106/159/4 110/161/4 108/136/4
f 105/153/6 97/82/6 107/135/6 109/154/6
f 97/164/2 98/165/2 108/166/2 107/167/2
f 116/168/5 121/169/5 122/170/5 115/171/5
f 120/172/5 118/173/5 117/174/5 119/175/5
f 91/85/4 99/85/4 118/176/4 120/176/4
f 112/86/6 111/86/6 115/160/6 122/160/6
f 111/86/1 100/85/1 116/176/1 115/160/1
f 100/85/4 92/85/4 121/176/4 116/176/4
f 119/175/2 120/172/2 121/169/2 122/170/2
f 112/86/4 114/86/4 119/160/4 122/160/4
f 121/176/6 120/176/6 91/85/6 92/85/6
f 114/177/5 112/178/5 92/179/5 91/180/5
f 114/175/5 113/174/5 25/68/5 28/67/5
f 111/171/5 112/170/5 26/113/5 23/108/5
f 91/85/5 99/85/5 113/86/5 114/86/5
f 100/85/5 92/85/5 112/86/5 111/86/5
f 129/84/6 130/84/6 135/181/6 133/181/6
f 125/41/3 129/40/3 133/182/3 134/183/3
f 132/78/5 137/77/5 138/184/5 131/185/5
f 136/74/5 134/73/5 133/186/5 135/187/5
f 123/83/4 125/83/4 134/188/4 136/188/4
f 128/84/6 127/84/6 131/181/6 138/181/6
f 127/84/1 126/83/1 132/188/1 131/181/1
f 126/83/4 124/83/4 137/188/4 132/188/4
f 135/187/2 136/74/2 137/77/2 138/184/2
f 128/84/4 130/84/4 135/181/4 138/181/4
f 137/188/6 136/188/6 123/83/6 124/83/6
f 130/189/5 128/190/5 124/191/5 123/192/5
f 123/83/5 125/83/5 129/84/5 130/84/5
f 126/83/5 124/83/5 128/84/5 127/84/5
f 130/187/5 129/186/5 99/173/5 91/172/5
f 127/185/5 128/184/5 92/169/5 100/168/5
f 140/193/3 145/194/3 149/35/3 150/34/3
f 145/195/6 146/195/6 151/89/6 149/89/6
f 148/58/5 153/59/5 154/196/5 147/197/5
f 152/32/5 150/33/5 149/198/5 151/199/5
f 141/200/3 144/195/3 154/89/3 153/90/3
f 142/200/4 140/200/4 150/90/4 152/90/4
f 146/195/1 142/200/1 152/90/1 151/89/1
f 144/195/6 143/195/6 147/89/6 154/89/6
f 143/195/1 139/200/1 148/90/1 147/89/1
f 139/200/4 141/200/4 153/90/4 148/90/4
f 151/89/2 152/90/2 153/90/2 154/89/2
f 144/195/4 146/195/4 151/89/4 154/89/4
f 153/90/6 152/90/6 142/200/6 141/200/6
f 146/199/5 144/196/5 141/59/5 142/32/5
f 154/196/20 147/197/20 24/131/20 27/63/20
f 149/198/20 151/199/20 21/64/20 22/103/20
usemtl Material.trash
f 47/2/6 51/2/6 12/2/6 48/1/6 55/1/6 9/1/6
f 35/91/3 10/14/3 38/92/3 41/93/3
f 36/96/6 56/96/6 54/96/6 35/96/6 41/97/6 42/97/6
f 29/98/1 47/2/1 39/99/1
f 9/1/1 36/96/1 42/97/1 37/100/1
f 37/7/11 42/53/11 41/57/11 38/10/11
f 34/98/6 53/98/6 52/98/6 29/98/6 39/99/6 40/99/6
f 10/1/4 48/1/4 55/1/4 9/1/4 37/100/4 38/100/4
f 11/15/3 34/101/3 40/102/3
f 45/47/6 46/46/6 58/46/6 57/47/6
f 9/1/13 36/96/13 56/96/13 55/1/13
f 44/47/6 35/96/6 54/96/6 50/47/6
f 46/46/6 29/98/6 52/98/6 58/46/6
f 35/96/13 10/1/13 48/1/13 54/96/13
f 48/1/1 12/2/1 49/46/1 50/47/1
f 49/111/1 12/15/1 53/101/1
f 48/14/1 50/112/1 54/91/1
f 51/2/3 55/1/3 57/47/3 58/46/3
f 51/2/3 58/46/3 52/98/3
f 57/47/3 55/1/3 56/96/3
f 36/96/6 45/47/6 57/47/6 56/96/6
f 43/46/6 44/47/6 50/47/6 49/46/6
f 11/2/14 34/98/14 53/98/14 12/2/14
f 29/98/14 47/2/14 51/2/14 52/98/14
f 34/98/6 43/46/6 49/46/6 53/98/6
f 53/98/16 12/2/16 51/2/16 52/98/16
f 56/96/17 55/1/17 48/1/17 54/96/17
f 47/24/21 51/23/21 12/22/21 11/21/21 40/50/21 39/54/21
usemtl Material.symbol
f 59/117/5 60/118/5 68/119/5 67/120/5 63/121/5 64/122/5
f 61/123/5 66/124/5 65/125/5 70/126/5 69/127/5 62/128/5
